<svg xmlns="http://www.w3.org/2000/svg" xmlns:xlink="http://www.w3.org/1999/xlink" width="20" height="20" viewBox="0 0 20 20">
  <defs>
    <path id="path-1" fill-rule="evenodd" d="M19.76744186 8.18181818h-9.53488372v3.86363637h5.4883721C15.20930232 14.5 13.06976743 15.9090909 10.23255813 15.9090909c-3.34883721 0-6.04651163-2.63636364-6.04651163-5.90909091s2.69767442-5.9090909 6.04651163-5.9090909c1.44186046 0 2.74418605.5 3.76744186 1.3181818L16.97674419 2.5C15.16279069.95454545 12.8372093 0 10.23255814 0 4.55813954 0 0 4.45454545 0 10s4.55813953 10 10.23255814 10C15.34883721 20 20 16.36363636 20 10c0-.5909091-.09302326-1.22727273-.23255814-1.81818182z"/>
    <mask id="mask-2" maskContentUnits="userSpaceOnUse" maskUnits="userSpaceOnUse">
      <rect width="20" height="20" x="0" y="0" fill="black"/>
      <use fill="white" xlink:href="#path-1"/>
    </mask>
  </defs>
  <g>
    <use fill="none" xlink:href="#path-1"/>
    <g mask="url(#mask-2)">
      <path fill="rgb(66,133,244)" fill-rule="evenodd" d="M21.39534884 20.9090909L6.97674419 10 5.11627907 8.63636364l16.27906977-4.54545455v16.81818182z"/>
    </g>
  </g>
</svg>
